<svg width="242" height="242" viewBox="0 0 242 242" fill="none" xmlns="http://www.w3.org/2000/svg">
<g filter="url(#filter0_d_3270_5657)">
<path d="M78.1544 74.1392C78.1544 73.0346 79.0498 72.1392 80.1544 72.1392H151.04L165.617 86.6506V186.231C165.617 187.335 164.721 188.231 163.617 188.231H80.1544C79.0498 188.231 78.1544 187.335 78.1544 186.231V74.1392Z" fill="white"/>
<path d="M80.1544 73.6392H150.42L164.116 87.2729V186.231C164.116 186.507 163.892 186.731 163.616 186.731H80.1544C79.8783 186.731 79.6545 186.507 79.6544 186.231V74.1392C79.6544 73.863 79.8783 73.6392 80.1544 73.6392Z" stroke="#AAAAAA" stroke-width="3"/>
</g>
<rect x="119.456" y="145.906" width="34.0131" height="2.41858" rx="1" fill="#CCCCCC"/>
<rect x="90.302" y="138.65" width="25.5098" height="2.41858" rx="1" fill="#5FC1E8"/>
<rect x="119.456" y="153.161" width="34.0131" height="2.41858" rx="1" fill="#CCCCCC"/>
<rect x="119.456" y="160.417" width="34.0131" height="2.41858" rx="1" fill="#CCCCCC"/>
<rect x="90.302" y="167.673" width="63.1672" height="2.41858" rx="1" fill="#CCCCCC"/>
<rect x="90.302" y="174.928" width="63.1672" height="2.41858" rx="1" fill="#5FC1E8"/>
<path d="M98.8054 155.58L91.5168 162.836H115.812L107.309 151.952L102.45 157.999L98.8054 155.58Z" fill="#5FC1E8"/>
<ellipse cx="96.9831" cy="148.929" rx="1.82213" ry="1.81393" fill="#5FC1E8"/>
<path d="M113.382 117.182C115.64 119.26 118.551 120.511 121.728 120.511C125.055 120.511 128.09 119.139 130.389 116.883" stroke="#AAAAAA" stroke-width="3" stroke-linecap="round"/>
<path d="M151.04 72.1392L165.617 86.6506H152.04C151.487 86.6506 151.04 86.2029 151.04 85.6506V72.1392Z" fill="#AAAAAA"/>
<path d="M79.3684 124.139C76.3799 128.299 68.0395 134.044 62.045 132.074C58.2755 130.835 56.256 128.511 55.5828 127.306" stroke="#AAAAAA" stroke-width="3" stroke-linecap="round"/>
<path d="M50.4756 124.737C50.4763 125.406 50.8812 126.519 51.8819 127.162C53.2205 128.022 54.5035 127.626 55.5834 127.306" stroke="#AAAAAA" stroke-width="3" stroke-linecap="round"/>
<path d="M164.624 124.645C167.613 128.805 174.96 134.044 180.955 132.074C184.724 130.835 186.744 128.511 187.417 127.306" stroke="#AAAAAA" stroke-width="3" stroke-linecap="round"/>
<path d="M192.524 124.737C192.524 125.406 192.119 126.519 191.118 127.162C189.779 128.023 188.496 127.626 187.417 127.307" stroke="#AAAAAA" stroke-width="3" stroke-linecap="round"/>
<rect x="55.3593" y="55.4998" width="38.3016" height="38.1158" rx="18.5" fill="white"/>
<rect x="55.3593" y="55.4998" width="38.3016" height="38.1158" rx="18.5" stroke="#FF6F3D" stroke-width="3"/>
<path d="M64.7921 89.6891C64.7921 85.2238 68.4119 81.604 72.8772 81.604H76.1431C80.6083 81.604 84.2282 85.2238 84.2282 89.6891C84.2282 90.6542 83.656 91.5275 82.7712 91.9129L80.899 92.7283C76.8246 94.5028 72.1957 94.5028 68.1213 92.7283L66.2491 91.9129C65.3643 91.5275 64.7921 90.6542 64.7921 89.6891Z" fill="#FF6F3D"/>
<ellipse cx="74.5102" cy="70.7203" rx="7.28852" ry="7.25573" fill="#FF6F3D"/>
<ellipse cx="110.345" cy="101.767" rx="3.03689" ry="3.02322" fill="#AAAAAA"/>
<ellipse cx="133.425" cy="101.767" rx="3.03689" ry="3.02322" fill="#AAAAAA"/>
<defs>
<filter id="filter0_d_3270_5657" x="63.1544" y="64.1392" width="117.462" height="146.092" filterUnits="userSpaceOnUse" color-interpolation-filters="sRGB">
<feFlood flood-opacity="0" result="BackgroundImageFix"/>
<feColorMatrix in="SourceAlpha" type="matrix" values="0 0 0 0 0 0 0 0 0 0 0 0 0 0 0 0 0 0 127 0" result="hardAlpha"/>
<feOffset dy="7"/>
<feGaussianBlur stdDeviation="7.5"/>
<feColorMatrix type="matrix" values="0 0 0 0 0.333333 0 0 0 0 0.333333 0 0 0 0 0.333333 0 0 0 0.1 0"/>
<feBlend mode="normal" in2="BackgroundImageFix" result="effect1_dropShadow_3270_5657"/>
<feBlend mode="normal" in="SourceGraphic" in2="effect1_dropShadow_3270_5657" result="shape"/>
</filter>
</defs>
</svg>
